<svg xmlns="http://www.w3.org/2000/svg" version="1.1" xmlns:xlink="http://www.w3.org/1999/xlink" xmlns:svgjs="http://svgjs.dev/svgjs" width="100%" height="100%" viewBox="200 0 600 600"><rect width="600" height="600" x="0" y="0" fill="#ffffff"/><g><rect width="333.3333333333333" height="333.3333333333333" rx="13.333333333333334" ry="13.333333333333334" y="77.77777014838344" fill="#292826" transform="matrix(2.2499999313354513,0,0,2.2499999313354517,0,-249.99999084472722)" x="55.55555725097656"/><path d="M169.3003835770285 184.09016676934337L169.3003835770285 184.09016676934337Q167.2550950300557 181.789217153999 167.2550950300557 178.940422392144L167.2550950300557 178.940422392144Q167.2550950300557 174.84984529819843 170.72478095795597 172.14714257541294Q174.19446688585623 169.4444398526275 178.02938291143022 169.4444398526275L178.02938291143022 169.4444398526275Q180.366855536542 169.4444398526275 182.52171311281688 171.12449830192656Q184.71309369885915 172.80455675122562 186.50272117746036 175.10550636657007Q188.32887166582893 177.40645598191446 189.86283807605852 179.99958967539783Q191.39680448628812 182.5562003591138 192.4194487597745 184.6014889060866L192.4194487597745 184.6014889060866Q198.59183741046024 177.15079491354282 206.80951460811877 173.68110898564254Q215.0271918057773 170.2114230577423 224.77883541366546 170.2114230577423L224.77883541366546 170.2114230577423Q234.01915688481037 170.2114230577423 240.95852874061092 173.16978684889938Q247.89790059641146 176.12815064005645 252.64589186616973 181.13180297818627Q257.393883135928 186.13545531631618 259.8409247903419 192.45393600607142Q262.28796644475574 198.73589368605926 262.28796644475574 205.67526554185977L262.28796644475574 205.67526554185977Q262.28796644475574 209.51018156743376 260.75400003452614 214.14860380788994Q259.18351061452915 218.75050303857867 256.22514682337214 222.98717217159376Q253.3033060419824 227.22384130460884 249.17620593826948 230.83961927157858Q245.08562884432388 234.418874228781 240.19154553549612 236.46416277575375L240.19154553549612 236.46416277575375Q249.17620593826948 237.23114598086855 256.11557779406996 240.9564929771404Q263.05494964987054 244.68183997341228 267.6568488805593 249.97767638968114Q272.2952711210155 255.2369897961826 274.74231277542935 261.5189474761704Q277.1893544298432 267.80090515615836 277.1893544298432 273.973293806844L277.1893544298432 273.973293806844Q277.1893544298432 285.0032427565902 273.20834636519976 293.4765810226203Q269.2273383005563 301.94991928865045 261.88621333731464 307.7570778416624Q254.58161138384042 313.5277133849071 244.31864563920908 316.4860771760642Q234.01915688481037 319.4444409672212 221.45524152483466 319.4444409672212L221.45524152483466 319.4444409672212Q213.23756432717613 319.4444409672212 205.7868703346324 318.64093475233904Q198.33617634208866 317.87395154722435 192.4194487597745 316.2304161076926Q186.50272117746036 314.5503576583935 183.06955825932747 311.9937469746776Q179.5998723314272 309.4006132811942 179.5998723314272 305.82135832399183L179.5998723314272 305.82135832399183Q180.366855536542 292.45393674913396 180.9877467025873 275.6533522561431Q181.64516087839996 258.8162447533849 181.64516087839996 241.86956822132473L181.64516087839996 241.86956822132473Q181.64516087839996 231.3509414083218 181.38949981002838 221.85495886880526Q181.13383874165677 212.32245331952137 180.62251660491359 204.10477612186278L180.62251660491359 204.10477612186278Q178.28504397980183 199.24721582280242 175.72843329608583 194.3531325139747Q173.17182261236985 189.4955722149143 169.3003835770285 184.09016676934337ZM199.87014275231826 203.8491150534912L199.87014275231826 203.8491150534912Q200.38146488906145 216.1938923548627 200.63712595743306 229.01346878321002Q200.89278702580464 241.86956822132473 200.89278702580464 254.21434552269616L200.89278702580464 254.21434552269616Q200.89278702580464 266.5225998143003 200.52755692813093 277.808209832418Q200.12580382068984 289.13034286030313 199.61448168394665 298.3706643314481L199.61448168394665 298.3706643314481Q206.04253140300398 299.9046307416777 212.72624219043294 300.927275015164Q219.3734299680945 301.94991928865045 224.52317434529385 301.94991928865045L224.52317434529385 301.94991928865045Q229.16159658575 301.94991928865045 235.04180115829678 300.41595287842085Q240.95852874061092 298.88198646819126 246.21784214711238 295.81405364773207Q251.47715555361384 292.7095978175055 255.09293352058359 287.96160654774724Q258.672188477786 283.213615277989 258.672188477786 276.52990449056006L258.672188477786 276.52990449056006Q258.1608663410428 263.1990059254696 248.00746962571355 255.74831193292576Q237.89059592015175 248.29761794038203 219.3734299680945 248.29761794038203L219.3734299680945 248.29761794038203Q216.5611582160069 248.29761794038203 215.13676083507943 244.93750104178392Q213.74888646391932 241.6139071529531 213.74888646391932 238.03465219575074L213.74888646391932 238.03465219575074Q213.74888646391932 233.14056888692298 216.5611582160069 231.3509414083218L216.5611582160069 231.3509414083218Q228.3946133806352 226.71251916786562 236.10096844155055 220.28446944880827Q243.77080049269853 213.8929427395183 243.77080049269853 206.186587678603L243.77080049269853 206.186587678603Q243.2594783559553 197.71324941257282 239.02280922294023 192.709597074443Q234.7861400899252 187.66942172654572 225.29015755040865 187.66942172654572L225.29015755040865 187.66942172654572Q217.5838024894933 187.66942172654572 211.04618374113386 191.39476872281764Q204.5085649927744 195.1201157190895 199.87014275231826 203.8491150534912Z " fill="#ffffff" transform="matrix(2.2499999313354513,0,0,2.2499999313354517,0,-249.99999084472722)"/><path d="MNaN 244.44444105360233 " fill="#292826" transform="matrix(2.2499999313354513,0,0,2.2499999313354517,0,-249.99999084472722)"/></g></svg>