<svg xmlns="http://www.w3.org/2000/svg" version="1.1" xmlns:xlink="http://www.w3.org/1999/xlink" xmlns:svgjs="http://svgjs.dev/svgjs" width="100%" height="100%" viewBox="80 165 840 270"><rect width="1200" height="270" x="80" y="165" fill="#ffffff"/><g><rect width="333.3333333333333" height="333.3333333333333" rx="13.333333333333334" ry="13.333333333333334" y="259.1412721973285" fill="#292826" transform="matrix(0.5276063767894413,0,0,0.5276063767894413,0,75.3410119318504)" x="236.91905212402344"/><path d="M350.6638733638124 365.4536765342564L350.6638733638124 365.4536765342564Q348.6185848168396 363.152726918912 348.6185848168396 360.30393215705703L348.6185848168396 360.30393215705703Q348.6185848168396 356.2133550631114 352.0882707447398 353.5106523403259Q355.5579566726401 350.8079496175405 359.3928726982141 350.8079496175405L359.3928726982141 350.8079496175405Q361.7303453233259 350.8079496175405 363.88520289960076 352.4880080668396Q366.076583485643 354.16806651613865 367.86621096424426 356.46901613148304Q369.6923614526128 358.76996574682744 371.22632786284237 361.3630994403108Q372.76029427307196 363.9197101240268 373.7829385465584 365.96499867099953L373.7829385465584 365.96499867099953Q379.9553271972441 358.5143046784558 388.17300439490265 355.0446187505555Q396.3906815925612 351.5749328226553 406.14232520044936 351.5749328226553L406.14232520044936 351.5749328226553Q415.3826466715942 351.5749328226553 422.3220185273948 354.53329661381235Q429.26139038319536 357.4916604049694 434.0093816529536 362.49531274309925Q438.75737292271185 367.49896508122913 441.20441457712576 373.81744577098436Q443.6514562315396 380.0994034509722 443.6514562315396 387.0387753067728L443.6514562315396 387.0387753067728Q443.6514562315396 390.87369133234677 442.11748982131 395.51211357280295Q440.5470004013131 400.1140128034917 437.58863661015596 404.35068193650676Q434.6667958287663 408.58735106952184 430.5396957250533 412.2031290364916Q426.44911863110775 415.782383993694 421.55503532228 417.82767254066675L421.55503532228 417.82767254066675Q430.5396957250533 418.59465574578155 437.4790675808539 422.3200027420534Q444.4184394366544 426.0453497383253 449.0203386673432 431.34118615459414Q453.6587609077993 436.6004995610956 456.1058025622132 442.88245724108344Q458.5528442166271 449.16441492107134 458.5528442166271 455.33680357175706L458.5528442166271 455.33680357175706Q458.5528442166271 466.3667525215032 454.57183615198363 474.8400907875333Q450.5908280873401 483.3134290535635 443.2497031240985 489.12058760657544Q435.9451011706243 494.8912231498201 425.68213542599295 497.84958694097725Q415.3826466715942 500.80795073213426 402.81873131161854 500.80795073213426L402.81873131161854 500.80795073213426Q394.60105411396 500.80795073213426 387.15036012141627 500.00444451725207Q379.69966612887254 499.2374613121373 373.7829385465584 497.5939258726056Q367.86621096424426 495.91386742330656 364.43304804611137 493.3572567395906Q360.9633621182111 490.7641230461072 360.9633621182111 487.1848680889048L360.9633621182111 487.1848680889048Q361.7303453233259 473.81744651404694 362.35123648937116 457.0168620210561Q363.00865066518384 440.17975451829795 363.00865066518384 423.23307798623773L363.00865066518384 423.23307798623773Q363.00865066518384 412.7144511732348 362.75298959681226 403.21846863371826Q362.4973285284407 393.6859630844344 361.98600639169746 385.4682858867758L361.98600639169746 385.4682858867758Q359.64853376658573 380.6107255877154 357.0919230828697 375.71664227888766Q354.5353123991537 370.8590819798273 350.6638733638124 365.4536765342564ZM381.23363253910213 385.2126248184042L381.23363253910213 385.2126248184042Q381.7449546758453 397.5574021197757 382.00061574421693 410.376978548123Q382.2562768125885 423.23307798623773 382.2562768125885 435.57785528760917L382.2562768125885 435.57785528760917Q382.2562768125885 447.8861095792133 381.8910467149148 459.17171959733105Q381.4892936074737 470.49385262521616 380.9779714707305 479.7341740963611L380.9779714707305 479.7341740963611Q387.40602118978785 481.26814050659067 394.08973197721684 482.29078478007705Q400.7369197548784 483.3134290535635 405.8866641320777 483.3134290535635L405.8866641320777 483.3134290535635Q410.5250863725339 483.3134290535635 416.40529094508065 481.7794626433339Q422.3220185273948 480.2454962331043 427.58133193389625 477.17756341264504Q432.8406453403977 474.0731075824185 436.45642330736746 469.32511631266027Q440.03567826456987 464.57712504290197 440.03567826456987 457.89341425547303L440.03567826456987 457.89341425547303Q439.52435612782665 444.56251569038255 429.3709594124974 437.11182169783876Q419.2540857069356 429.66112770529503 400.7369197548784 429.66112770529503L400.7369197548784 429.66112770529503Q397.9246480027908 429.66112770529503 396.5002506218633 426.3010108066969Q395.11237625070316 422.9774169178661 395.11237625070316 419.39816196066374L395.11237625070316 419.39816196066374Q395.11237625070316 414.504078651836 397.9246480027908 412.7144511732348L397.9246480027908 412.7144511732348Q409.7581031674191 408.0760289327786 417.4644582283344 401.64797921372127Q425.1342902794824 395.2564525044313 425.1342902794824 387.550097443516L425.1342902794824 387.550097443516Q424.6229681427392 379.0767591774858 420.3862990097241 374.073106839356Q416.14962987670907 369.0329314914587 406.6536473371925 369.0329314914587L406.6536473371925 369.0329314914587Q398.94729227627715 369.0329314914587 392.40967352791773 372.75827848773065Q385.8720547795583 376.48362548400246 381.23363253910213 385.2126248184042Z " fill="#ffffff" transform="matrix(0.5276063767894413,0,0,0.5276063767894413,0,75.3410119318504)"/><path d="M679.4580642884263 468.44267056968374L679.4580642884263 468.44267056968374Q686.9116863974956 467.97888963845276 694.1334180409494 467.74699917283726Q701.3551496844034 467.51510870722177 708.5768813278571 467.2832182416063L708.5768813278571 467.2832182416063L736.2712283642215 466.5875468447598Q739.3189316265965 467.2832182416063 740.842783257784 469.6021228977612Q742.3335076795979 471.92102755391613 742.3335076795979 474.7368403506756L742.3335076795979 474.7368403506756Q742.3335076795979 477.5195259380615 740.7102744202895 479.7390489660955Q739.087041160981 481.95857199412944 735.8074474329906 481.95857199412944L735.8074474329906 481.95857199412944Q719.045079489928 481.95857199412944 700.8913687531724 482.6542433909759Q682.7045308070432 483.3499147878224 665.9421628639806 483.3499147878224L665.9421628639806 483.3499147878224Q662.9275868109792 483.3499147878224 660.1117740142197 479.8715578035901Q657.3290884268338 476.36007360998406 657.3290884268338 472.18604522890524L657.3290884268338 472.18604522890524Q657.3290884268338 469.6021228977612 658.4885407549111 468.44267056968374L658.4885407549111 468.44267056968374L679.6899547540418 444.4585709831673Q684.5927817413408 439.09196306463735 690.0587712879916 433.4934646804919Q695.5247608346424 427.92809350572014 700.2950789844468 421.7333053528492Q705.0653971342512 415.57164440935185 708.2124820247471 408.813693697129Q711.359566915243 402.05574298490615 711.359566915243 394.3702304102213L711.359566915243 394.3702304102213Q711.359566915243 385.75715597307453 704.9660155061302 380.2911664264237Q698.5393368876438 374.79204967039914 689.6943719848815 374.79204967039914L689.6943719848815 374.79204967039914Q683.8639831351206 375.2889578110038 678.2986119603488 379.1317140983462Q672.7001135762034 382.9744703856886 668.7248484513664 391.5875448228354L668.7248484513664 391.5875448228354Q666.8697247264424 395.0659018070678 662.9275868109792 395.0659018070678L662.9275868109792 395.0659018070678Q659.8798835486041 395.0659018070678 656.7327986581082 393.0782692446493Q653.5857137676123 391.1237638916044 653.5857137676123 387.8441701636139L653.5857137676123 387.8441701636139Q653.5857137676123 386.45282736992095 654.2813851644587 385.06148457622805L654.2813851644587 385.06148457622805Q659.4161026173731 371.5455831517823 669.784919151323 365.71519430202136Q680.1537356852727 359.8848054522605 691.31760524419 359.8848054522605L691.31760524419 359.8848054522605Q697.1479940939508 359.8848054522605 703.8065631780528 361.30927545532705Q710.432005052781 362.70061824902 716.0305034369266 366.5433745363624Q721.5958746116983 370.38613082370483 725.3392492709197 377.24346316404865Q729.0494967207676 384.1339227137661 729.0494967207676 395.0659018070678L729.0494967207676 395.0659018070678Q729.0494967207676 401.1281811224442 727.4262634614593 406.49478904097407Q725.8030302021507 411.8282697501304 723.2522350803804 416.7310967374293Q720.6683127492363 421.6339237247283 717.0574469275094 426.2717330370381Q713.4465811057825 430.94266955872155 709.7363336559347 435.3817156147895L709.7363336559347 435.3817156147895Q703.9059448061737 442.1065391176387 696.6842131627199 450.0570693673127Q689.462481519266 457.974472407613 679.4580642884263 468.44267056968374ZM762.839250281882 414.87597301250537L762.839250281882 414.87597301250537Q760.984126556958 412.2920506813614 760.984126556958 410.20503649082195L760.984126556958 410.20503649082195Q760.984126556958 406.72667950658956 764.2305930755749 404.1427571754455Q767.5101868035654 401.59196205367516 770.9885437877978 401.59196205367516L770.9885437877978 401.59196205367516Q773.3074484439527 401.59196205367516 775.4275898438658 403.11581368486264Q777.5146040344052 404.6065381066765 779.0384556655927 406.72667950658956Q780.5291800874065 408.813693697129 781.8211412529786 411.26510719077845Q783.1131024185506 413.71652068442796 784.0406642810126 415.57164440935185L784.0406642810126 415.57164440935185Q788.4465831277068 413.94841115004346 794.6413712805778 412.6564499844714Q800.8030322240752 411.3644888188994 807.7928734019135 411.3644888188994L807.7928734019135 411.3644888188994Q810.8074494549148 411.3644888188994 815.2464955109829 411.72888812200944Q819.6855415670508 412.0601602157459 823.9920787856242 414.04779277816436Q828.2986160041976 416.03542534058283 831.9094818259246 420.3419625591563Q835.5203476476515 424.6484997777296 837.3754713725754 432.56590281803L837.3754713725754 432.56590281803Q838.3030332350373 436.7730584084824 838.4355420725319 442.83533772385886Q838.5349237006528 448.8644898298616 838.7668141662683 455.39055007646897L838.7668141662683 455.39055007646897Q838.5349237006528 460.9890484606144 838.5349237006528 466.6869284728807Q838.5349237006528 472.41793569452074 837.7398706756854 476.9563633787096Q836.9116904413445 481.49479106289846 835.0565667164204 484.27747665028437Q833.1683157821229 487.0932894470439 829.458068332275 487.0932894470439L829.458068332275 487.0932894470439Q825.4828032074381 487.0932894470439 822.8326264575468 484.74125758151536Q820.1493224982818 482.4223529253604 820.1493224982818 478.6789782661389L820.1493224982818 478.6789782661389Q820.1493224982818 471.92102755391613 820.8449938951283 463.3079531167693Q821.5406652919747 454.6948786796225 821.5406652919747 447.70503750178415L821.5406652919747 447.70503750178415Q821.5406652919747 441.4108677207922 820.4805945920182 437.4687298053289Q819.4536511014353 433.4934646804919 817.5654001671378 431.30706886183157Q815.7102764422139 429.0875458337976 812.6957003892124 428.3918744369511Q809.6479971268375 427.69620304010465 805.9377496769896 427.69620304010465L805.9377496769896 427.69620304010465Q801.9624845521525 427.69620304010465 797.8878377991947 428.72314653068753Q793.8131910462369 429.7832172306441 789.8710531307735 430.94266955872155L789.8710531307735 430.94266955872155Q790.102943596389 435.3817156147895 790.2023252245099 440.0195249270993Q790.3348340620045 444.6904614487828 790.3348340620045 449.8251789016972L790.3348340620045 449.8251789016972Q790.3348340620045 457.974472407613 790.3348340620045 464.8318047479568Q790.3348340620045 471.68913708830064 789.5066538276634 476.72447291309413Q788.6784735933223 481.72668152851395 786.3595689371675 484.64187595339445Q784.0406642810126 487.55707037827494 779.6016182249446 487.55707037827494L779.6016182249446 487.55707037827494Q776.3551517063277 487.0932894470439 774.2681375157883 485.20503851274634Q772.1479961158752 483.3499147878224 772.1479961158752 480.335338734821L772.1479961158752 480.335338734821Q772.1479961158752 473.34549755698265 772.6117770471062 465.6599849822979Q773.0755579783372 457.974472407613 773.0755579783372 449.0963802954771L773.0755579783372 449.0963802954771Q773.0755579783372 444.6904614487828 772.9761763502163 441.17897725517673Q772.8436675127217 437.7006202709444 772.6117770471062 434.4210265429539L772.6117770471062 434.4210265429539Q770.0609819253358 430.47888862749056 768.0733493629174 425.4766800120707Q766.0857168004989 420.4744713966508 762.839250281882 414.87597301250537ZM908.201445013421 365.48330383640587L908.201445013421 365.48330383640587Q906.3131940791234 363.3962896458665 906.3131940791234 360.8454945240961L906.3131940791234 360.8454945240961Q906.3131940791234 357.10211986487457 909.4602789696194 354.6507063712251Q912.6073638601152 352.19929287757566 916.1188480537212 352.19929287757566L916.1188480537212 352.19929287757566Q919.5972050379536 352.19929287757566 922.8436715565706 355.8101586993026Q926.1232652845611 359.4210245210295 928.6740604063314 364.2244698802075Q931.2579827374755 368.9947880300119 933.1131064623994 373.40070687670624Q934.9682301873233 377.8397529327742 935.6639015841698 379.4629861920826L935.6639015841698 379.4629861920826Q936.1276825154007 391.5875448228354 936.3595729810163 402.88392321924715Q936.5914634466317 414.18030161565895 936.5914634466317 425.1122807089606L936.5914634466317 425.1122807089606Q936.5914634466317 432.7977932836455 936.5914634466317 440.15203376459385Q936.5914634466317 447.47314703616865 936.1276825154007 454.926769145238L936.1276825154007 454.926769145238Q936.5914634466317 460.7571579949989 939.5066578715123 465.42809451668234Q942.4218522963927 470.0659038289922 944.9726474181631 474.9687308162911L944.9726474181631 474.9687308162911Q945.7014460243831 476.36007360998406 945.7014460243831 477.751416403677L945.7014460243831 477.751416403677Q945.7014460243831 481.49479106289846 942.5543611338871 483.7143140909325Q939.4072762433913 485.9007099095928 936.1276825154007 485.9007099095928L936.1276825154007 485.9007099095928Q928.2102794751004 485.9007099095928 922.611781090955 470.99346569145416L922.611781090955 470.99346569145416Q912.3754733944997 480.5672292004365 897.9320101075921 480.5672292004365L897.9320101075921 480.5672292004365Q880.473970767683 480.5672292004365 870.3370446993487 471.1259745289487Q860.2001186310144 461.6847198574609 860.2001186310144 442.83533772385886L860.2001186310144 442.83533772385886Q860.2001186310144 434.1891360773384 863.7116028246204 427.4643125744892Q867.1899598088528 420.7063618622663 872.4240588898881 416.1679341780774Q877.6581579709235 411.5963792845149 884.0848365894099 409.27747462836Q890.4783879985227 406.9585699722051 896.5406673138991 406.9585699722051L896.5406673138991 406.9585699722051Q902.1391656980445 407.42235090343604 908.201445013421 409.27747462836Q914.2305971194237 411.1325983532839 919.5972050379536 414.41219208127444L919.5972050379536 414.41219208127444Q919.5972050379536 406.49478904097407 919.3653145723381 398.6767676287947Q919.1334241067227 390.89187342598893 918.4377527098761 383.6701417825351L918.4377527098761 383.6701417825351Q916.3507385193368 379.2310957264671 913.9987066538083 374.79204967039914Q911.6798019976534 370.38613082370483 908.201445013421 365.48330383640587ZM918.9015336411071 444.4585709831673L918.9015336411071 444.4585709831673L918.9015336411071 442.60344725824336Q918.6696431754917 434.4210265429539 912.0442013007635 428.8556553681821Q905.3856322166614 423.2571569840367 894.4536531233598 423.2571569840367L894.4536531233598 423.2571569840367Q892.1016212578312 423.2571569840367 889.1864268329507 424.41660931211413Q886.3043596174439 425.5760616401916 883.6210556581789 428.0274751338411Q880.937751698914 430.47888862749056 879.1820096021111 434.4210265429539Q877.426267505308 438.3962916677909 877.426267505308 443.7628995863208L877.426267505308 443.7628995863208Q877.426267505308 452.6078644890831 882.5609849582224 458.6701438044595Q887.6957024111368 464.73242311983586 896.5406673138991 464.73242311983586L896.5406673138991 464.73242311983586Q900.4828052293625 464.73242311983586 904.325561516705 463.2085714886484Q908.201445013421 461.6847198574609 911.3154026945433 458.902034270075Q914.4624875850392 456.08622147331545 916.4501201474577 452.3759740234676Q918.4377527098761 448.6325993642461 918.9015336411071 444.4585709831673ZM961.7681425705993 364.09196104271297L961.7681425705993 364.09196104271297Q959.8798916363017 362.00494685217353 959.8798916363017 359.4210245210295L959.8798916363017 359.4210245210295Q959.8798916363017 355.7107770711816 963.0269765267976 353.25936357753216Q966.1740614172936 350.8079500838827 969.6855456108997 350.8079500838827L969.6855456108997 350.8079500838827Q973.163902595132 350.8079500838827 976.4434963231224 354.4188159056096Q979.6899628417393 358.02968172733654 982.2407579635097 362.7999998771409Q984.8246802946538 367.5703180269453 986.6798040195777 372.0093640830133Q988.5349277445016 376.44841013908126 989.2305991413482 378.07164339838965L989.2305991413482 378.07164339838965L989.9262705381946 395.9934636695297Q989.9262705381946 400.6644001912132 990.0587793756891 405.2028278754021Q990.1912882131837 409.74125555959097 990.4231786787992 414.18030161565895L990.4231786787992 414.18030161565895Q994.3653165942626 411.3644888188994 1000.0631966065289 409.64187393147006Q1005.7942038281689 407.886131834667 1011.1276845373252 407.886131834667L1011.1276845373252 407.886131834667Q1016.7261829214706 407.886131834667 1022.788462236847 410.20503649082195Q1028.8507415522233 412.5570683563505 1033.9523317957642 416.9629872030448Q1039.0870492486786 421.4020332591128 1042.366642976669 427.92809350572014Q1045.613109495286 434.4210265429539 1045.613109495286 442.83533772385886L1045.613109495286 442.83533772385886Q1045.613109495286 452.1440835578521 1042.4660246047902 459.36581520130596Q1039.3189397142942 466.5875468447598 1033.7204413301488 471.58975546017973Q1028.155070155377 476.59196407559955 1020.469557580692 479.14275919736997Q1012.7840450060072 481.72668152851395 1003.6740624282559 481.72668152851395L1003.6740624282559 481.72668152851395Q999.2681435815615 481.72668152851395 995.425387294219 480.43472036294196Q991.5826310068767 479.14275919736997 988.3030372788862 476.82385454121504L988.3030372788862 476.82385454121504Q987.1435849508086 479.8715578035901 984.9240619227747 481.26290059728296Q982.7376661041144 482.6542433909759 980.1537437729703 482.6542433909759L980.1537437729703 482.6542433909759Q976.675386788738 482.6542433909759 973.8595739919784 480.5672292004365Q971.0768884045926 478.4470878005235 971.0768884045926 474.5049498850601L971.0768884045926 474.5049498850601Q971.772559801439 462.38039125430737 972.3688495701646 447.14187494243225Q972.9320121295165 431.8702314211835 972.9320121295165 416.4992062718138L972.9320121295165 416.4992062718138Q972.9320121295165 406.9585699722051 972.700121663901 398.34549553505826Q972.4682311982855 389.69929388853785 972.0044502670546 382.2456717794685L972.0044502670546 382.2456717794685Q969.9174360765151 377.8397529327742 967.5654042109866 373.40070687670624Q965.2464995548316 368.9947880300119 961.7681425705993 364.09196104271297ZM990.1912882131837 443.53100912070533L990.1912882131837 443.53100912070533Q990.1912882131837 445.3861328456292 990.0587793756891 447.24125657055316Q989.9262705381946 449.0963802954771 989.9262705381946 450.75274076415917L989.9262705381946 450.75274076415917Q990.6550691444147 457.0137833357774 994.7297158973727 461.5853382293399Q998.8043626503305 466.1237659135288 1006.0260942937844 466.1237659135288L1006.0260942937844 466.1237659135288Q1016.0305115246241 466.1237659135288 1021.9602820025059 460.29337706376793Q1027.9231796897614 454.462988214007 1027.9231796897614 445.6180233112447L1027.9231796897614 445.6180233112447Q1027.691289224146 440.2514153927148 1026.0349287554639 436.30927747725144Q1024.4116954961553 432.3340123524145 1022.0927908400006 429.6507083931495Q1019.7407589744719 426.96740443388455 1016.958073387086 425.5760616401916Q1014.1753877997003 424.18471884649864 1011.5914654685562 424.18471884649864L1011.5914654685562 424.18471884649864Q1000.89137684087 424.8803902433451 996.2204403191865 429.882598858765Q991.5826310068767 434.91793468355854 990.1912882131837 443.53100912070533ZM1094.2769800651654 427.4643125744892L1094.2769800651654 427.4643125744892Q1103.6188531085322 418.12243953112227 1116.405955926758 412.4245595188559Q1129.226185954357 406.72667950658956 1143.4377587756494 406.0310081097431L1143.4377587756494 406.0310081097431Q1146.9492429692552 406.49478904097407 1148.6718578566847 409.1780930002391Q1150.4275999534877 411.8282697501304 1150.4275999534877 414.87597301250537L1150.4275999534877 414.87597301250537Q1150.4275999534877 417.4267681342758 1149.1356387879157 419.6462911623098Q1147.8768048317174 421.86581419034377 1145.2928825005733 421.86581419034377L1145.2928825005733 421.86581419034377Q1129.9218573512037 425.3441711745761 1118.3935884891764 430.71077909310605Q1106.8653196271491 436.077387011636 1099.8754784493108 444.9223519143983L1099.8754784493108 444.9223519143983Q1099.8754784493108 449.5601612267081 1100.4717682180362 454.1317161202706Q1101.0349307773884 458.6701438044595 1101.0349307773884 463.53984358238483L1101.0349307773884 463.53984358238483Q1101.0349307773884 469.6021228977612 1100.7036586836518 475.6644022131376Q1100.3392593805418 481.72668152851395 1099.1798070524642 487.55707037827494L1099.1798070524642 487.55707037827494Q1098.9479165868488 490.57164643127624 1096.165230999463 491.7310987593537Q1093.3494182027034 492.89055108743116 1090.1029516840865 492.89055108743116L1090.1029516840865 492.89055108743116Q1086.823357956096 492.89055108743116 1084.1731812062048 491.3998266656173Q1081.4898772469396 489.8759750344298 1081.4898772469396 487.0932894470439L1081.4898772469396 487.0932894470439Q1082.1855486437862 480.5672292004365 1082.748711203138 473.6767696507191Q1083.3450009718636 466.8194373103753 1083.3450009718636 460.06148659815244L1083.3450009718636 460.06148659815244Q1083.3450009718636 450.98463122977466 1081.1254779438298 444.9223519143983Q1078.9059549157957 438.86007259902186 1077.0508311908718 434.91793468355854L1077.0508311908718 434.91793468355854Q1076.3551597940252 433.7253551461074 1074.3675272316068 431.53895932744706Q1072.413021878562 429.3194362994131 1070.2928804786488 426.86802280576364Q1068.2058662881095 424.41660931211413 1066.582633028801 421.86581419034377Q1064.9593997694926 419.28189185919973 1064.9593997694926 417.4267681342758L1064.9593997694926 417.4267681342758Q1064.9593997694926 413.48463021881247 1068.0733574506148 410.56943579393203Q1071.2204423411108 407.65424136905153 1075.1957074659479 407.65424136905153L1075.1957074659479 407.65424136905153Q1079.1378453814111 407.65424136905153 1084.5044532999411 413.48463021881247Q1089.8710612184711 419.28189185919973 1094.2769800651654 427.4643125744892ZM1199.5883786639718 410.43692695643745L1199.5883786639718 410.43692695643745Q1200.9797214576647 409.27747462836 1203.5305165794352 409.27747462836L1203.5305165794352 409.27747462836Q1211.4479196197353 409.97314602520646 1217.7420894007273 413.5840118469334Q1224.0362591817193 417.1948776686603 1228.3427964002926 422.42897674969566Q1232.649333618866 427.69620304010465 1234.8688566469 433.9572456117229Q1237.088379674934 440.2514153927148 1237.088379674934 446.0818042424757L1237.088379674934 446.0818042424757L1237.088379674934 447.24125657055316Q1238.7116129342426 452.6078644890831 1240.5667366591663 455.62244054208446Q1242.4218603840902 458.6701438044595 1244.641383412124 460.29337706376793Q1246.8609064401583 461.9166103230764 1249.080429468192 462.2810096261864Q1251.299952496226 462.61228171992286 1253.618857152381 462.61228171992286L1253.618857152381 462.61228171992286Q1255.7058713429205 462.61228171992286 1258.15728483657 461.6847198574609Q1260.6086983302193 460.7571579949989 1263.8551648488362 460.7571579949989L1263.8551648488362 460.7571579949989Q1266.9028681112113 460.7571579949989 1268.8573734642562 463.2085714886484Q1270.8450060266746 465.6599849822979 1270.8450060266746 468.44267056968374L1270.8450060266746 468.44267056968374Q1270.8450060266746 470.99346569145416 1269.321154395487 472.98109825387263Q1267.8304299736733 474.9687308162911 1265.3790164800237 476.26069198186315Q1262.9276029863743 477.5195259380615 1260.0124085614939 478.1158157067871Q1257.0972141366133 478.6789782661389 1254.3145285492276 478.6789782661389L1254.3145285492276 478.6789782661389Q1245.4695636464653 478.6789782661389 1238.943503399858 474.9687308162911Q1232.4174431532506 471.2253561570696 1228.7071957034027 466.3556563791443L1228.7071957034027 466.3556563791443Q1224.0362591817193 471.68913708830064 1217.510198935112 474.7368403506756Q1210.9841386885046 477.751416403677 1203.7624070450506 477.751416403677L1203.7624070450506 477.751416403677Q1197.2363467984433 477.751416403677 1190.710286551836 475.6644022131376Q1184.217353514602 473.57738802259814 1179.0826360616877 469.3702324321457Q1173.9479186087733 465.1962040510669 1170.7014520901564 459.0014158981959Q1167.421858362166 452.8397549546986 1167.421858362166 444.4585709831673L1167.421858362166 444.4585709831673Q1167.421858362166 439.55574399586834 1169.1776004589688 434.1891360773384Q1170.9333425557718 428.8556553681821 1174.411699540004 423.95282838088315Q1177.9231837336101 419.05000139358424 1182.92539234903 415.33975394373635Q1187.92760096445 411.5963792845149 1194.6855516766727 410.20503649082195L1194.6855516766727 410.20503649082195L1196.0768944703657 410.20503649082195Q1198.3957991265206 410.20503649082195 1199.5883786639718 410.43692695643745ZM1200.9797214576647 425.1122807089606L1200.9797214576647 425.1122807089606Q1192.8304279517488 427.69620304010465 1189.0870532925273 432.46652118990903Q1185.3768058426795 437.2368393397134 1185.3768058426795 443.53100912070533L1185.3768058426795 443.53100912070533Q1185.3768058426795 450.98463122977466 1189.219562130022 456.21873031081003Q1193.0623184173644 461.4528293918454 1203.5305165794352 461.4528293918454L1203.5305165794352 461.4528293918454Q1209.5927958948114 461.4528293918454 1214.2637324164948 457.0137833357774Q1218.9015417288047 452.6078644890831 1218.9015417288047 445.1542423800138L1218.9015417288047 445.1542423800138Q1218.9015417288047 440.0195249270993 1217.3776900976172 436.6405495709879Q1215.8869656758034 433.2615742148764 1213.435552182154 431.0751783962161Q1210.9841386885046 428.8556553681821 1207.7376721698874 427.5636942026101Q1204.4580784418972 426.2717330370381 1200.9797214576647 425.1122807089606ZM1290.1912963008813 481.26290059728296L1290.1912963008813 480.1034482692056Q1291.3507486289589 470.99346569145416 1291.9139111883107 461.2209389262299Q1292.5102009570362 451.44841216100565 1292.5102009570362 441.6427581864077L1292.5102009570362 441.6427581864077L1292.5102009570362 411.1325983532839Q1292.5102009570362 408.349912765898 1295.0609960788065 406.8260611347105Q1297.6449184099506 405.33533671289666 1300.8913849285675 405.33533671289666L1300.8913849285675 405.33533671289666Q1303.707197725327 405.33533671289666 1306.2579928470975 406.49478904097407Q1308.8087879688678 407.65424136905153 1309.7363498313298 410.20503649082195L1309.7363498313298 410.20503649082195Q1309.9682402969454 416.7310967374293 1310.1007491344399 425.3441711745761Q1310.2001307625608 433.9572456117229 1310.2001307625608 443.29911865508984L1310.2001307625608 443.29911865508984Q1310.2001307625608 453.0716454203141 1309.5044593657144 462.9766810230329Q1308.8087879688678 472.88171662575166 1308.3450070376368 481.95857199412944L1308.3450070376368 481.95857199412944Q1307.6493356407902 485.9007099095928 1305.09854051902 487.88834247201135Q1302.514618187876 489.8759750344298 1299.5000421348745 489.8759750344298L1299.5000421348745 489.8759750344298Q1296.2535756162576 489.8759750344298 1293.2058723538828 487.7889608438904Q1290.1912963008813 485.6688194439773 1290.1912963008813 481.26290059728296L1290.1912963008813 481.26290059728296ZM1313.9435054217822 372.93692594547525L1313.9435054217822 372.93692594547525Q1312.7840530937049 378.76731479523613 1309.2725689000988 381.78189084823754Q1305.7942119158663 384.82959411061256 1300.8913849285675 384.82959411061256L1300.8913849285675 384.82959411061256Q1299.0362612036436 384.82959411061256 1296.485466081873 384.233304341887Q1293.9015437507292 383.6701417825351 1291.6820207226951 382.14629015134756Q1289.495624904035 380.6224385201601 1287.8392644353528 377.9391345608951Q1286.2160311760442 375.2889578110038 1286.2160311760442 371.0818022205513L1286.2160311760442 371.0818022205513Q1286.2160311760442 363.628180111482 1290.4231867664969 360.24920475537056Q1294.5972151475755 356.8702293992591 1301.3551658597985 356.8702293992591L1301.3551658597985 356.8702293992591Q1308.1131165720215 356.8702293992591 1311.1608198343963 361.07738498971156Q1314.1753958873976 365.2514133707904 1314.1753958873976 370.6180212893203L1314.1753958873976 370.6180212893203Q1314.1753958873976 371.0818022205513 1314.0428870499031 371.7774736173978Q1313.9435054217822 372.47314501424427 1313.9435054217822 372.93692594547525ZM1336.7681526802214 414.87597301250537L1336.7681526802214 414.87597301250537Q1334.9130289552972 412.2920506813614 1334.9130289552972 410.20503649082195L1334.9130289552972 410.20503649082195Q1334.9130289552972 406.72667950658956 1338.1594954739141 404.1427571754455Q1341.4390892019048 401.59196205367516 1344.917446186137 401.59196205367516L1344.917446186137 401.59196205367516Q1347.236350842292 401.59196205367516 1349.3564922422051 403.11581368486264Q1351.4435064327445 404.6065381066765 1352.967358063932 406.72667950658956Q1354.458082485746 408.813693697129 1355.7500436513178 411.26510719077845Q1357.04200481689 413.71652068442796 1357.969566679352 415.57164440935185L1357.969566679352 415.57164440935185Q1362.375485526046 413.94841115004346 1368.5702736789171 412.6564499844714Q1374.7319346224147 411.3644888188994 1381.7217758002528 411.3644888188994L1381.7217758002528 411.3644888188994Q1384.736351853254 411.3644888188994 1389.175397909322 411.72888812200944Q1393.6144439653901 412.0601602157459 1397.9209811839635 414.04779277816436Q1402.2275184025368 416.03542534058283 1405.8383842242638 420.3419625591563Q1409.4492500459908 424.6484997777296 1411.3043737709147 432.56590281803L1411.3043737709147 432.56590281803Q1412.2319356333767 436.7730584084824 1412.3644444708711 442.83533772385886Q1412.463826098992 448.8644898298616 1412.6957165646074 455.39055007646897L1412.6957165646074 455.39055007646897Q1412.463826098992 460.9890484606144 1412.463826098992 466.6869284728807Q1412.463826098992 472.41793569452074 1411.6687730740248 476.9563633787096Q1410.8405928396837 481.49479106289846 1408.98546911476 484.27747665028437Q1407.097218180462 487.0932894470439 1403.3869707306144 487.0932894470439L1403.3869707306144 487.0932894470439Q1399.4117056057773 487.0932894470439 1396.7615288558861 484.74125758151536Q1394.0782248966211 482.4223529253604 1394.0782248966211 478.6789782661389L1394.0782248966211 478.6789782661389Q1394.0782248966211 471.92102755391613 1394.7738962934675 463.3079531167693Q1395.469567690314 454.6948786796225 1395.469567690314 447.70503750178415L1395.469567690314 447.70503750178415Q1395.469567690314 441.4108677207922 1394.4094969903574 437.4687298053289Q1393.3825534997748 433.4934646804919 1391.494302565477 431.30706886183157Q1389.6391788405533 429.0875458337976 1386.6246027875518 428.3918744369511Q1383.5768995251767 427.69620304010465 1379.8666520753288 427.69620304010465L1379.8666520753288 427.69620304010465Q1375.891386950492 427.69620304010465 1371.816740197534 428.72314653068753Q1367.742093444576 429.7832172306441 1363.7999555291128 430.94266955872155L1363.7999555291128 430.94266955872155Q1364.0318459947282 435.3817156147895 1364.1312276228493 440.0195249270993Q1364.2637364603436 444.6904614487828 1364.2637364603436 449.8251789016972L1364.2637364603436 449.8251789016972Q1364.2637364603436 457.974472407613 1364.2637364603436 464.8318047479568Q1364.2637364603436 471.68913708830064 1363.4355562260027 476.72447291309413Q1362.6073759916617 481.72668152851395 1360.2884713355068 484.64187595339445Q1357.969566679352 487.55707037827494 1353.530520623284 487.55707037827494L1353.530520623284 487.55707037827494Q1350.284054104667 487.0932894470439 1348.1970399141276 485.20503851274634Q1346.0768985142145 483.3499147878224 1346.0768985142145 480.335338734821L1346.0768985142145 480.335338734821Q1346.0768985142145 473.34549755698265 1346.5406794454454 465.6599849822979Q1347.0044603766764 457.974472407613 1347.0044603766764 449.0963802954771L1347.0044603766764 449.0963802954771Q1347.0044603766764 444.6904614487828 1346.9050787485555 441.17897725517673Q1346.772569911061 437.7006202709444 1346.5406794454454 434.4210265429539L1346.5406794454454 434.4210265429539Q1343.9898843236751 430.47888862749056 1342.0022517612567 425.4766800120707Q1340.014619198838 420.4744713966508 1336.7681526802214 414.87597301250537ZM1464.407290396862 488.94841317196784L1464.407290396862 488.94841317196784Q1463.2478380687846 494.7788020217288 1459.7694810845521 497.79337807473013Q1456.257996890946 500.80795412773153 1451.3551699036473 500.80795412773153L1451.3551699036473 500.80795412773153Q1449.5000461787233 500.80795412773153 1446.949251056953 500.2447915683796Q1444.365328725809 499.648501799654 1442.1789329071487 498.15777737784015Q1439.9594098791147 496.63392574665266 1438.336176619806 493.9506217873877Q1436.679816151124 491.2673178281227 1436.679816151124 487.0932894470439L1436.679816151124 487.0932894470439Q1436.679816151124 479.6396673379746 1440.8869717415766 476.26069198186315Q1445.0941273320288 472.88171662575166 1451.8189508348783 472.88171662575166L1451.8189508348783 472.88171662575166Q1458.5769015471012 472.88171662575166 1461.624604809476 477.05574500683053Q1464.6391808624776 481.26290059728296 1464.6391808624776 486.5963813064393L1464.6391808624776 486.5963813064393Q1464.6391808624776 487.0932894470439 1464.5397992343567 487.7889608438904Q1464.407290396862 488.48463224073686 1464.407290396862 488.94841317196784ZM1547.7884763903178 405.10344624728117L1547.7884763903178 405.10344624728117Q1551.5318510495392 406.2628985753586 1553.1550843088478 409.0455841627445Q1554.7783175681561 411.8282697501304 1554.7783175681561 414.87597301250537L1554.7783175681561 414.87597301250537Q1554.7783175681561 417.8905490655068 1552.6913033776166 420.3419625591563Q1550.6042891870773 422.79337605280574 1547.7884763903178 422.79337605280574L1547.7884763903178 422.79337605280574Q1545.2376812685472 422.79337605280574 1542.4549956811613 422.56148558719025Q1539.6391828844019 422.32959512157476 1536.6246068314006 422.32959512157476L1536.6246068314006 422.32959512157476Q1529.8666561191778 422.32959512157476 1523.7049951756803 424.18471884649864Q1517.5102070228093 426.0398425714226 1513.7999595729614 432.102121886799L1513.7999595729614 432.102121886799Q1510.7522563105865 436.7730584084824 1509.5928039825092 441.0795956270558Q1508.4333516544316 445.3861328456292 1508.4333516544316 449.0963802954771L1508.4333516544316 449.0963802954771Q1508.4333516544316 458.438253338844 1514.7275214354236 463.90424288549485Q1521.0216912164153 469.3702324321457 1529.1709847223312 469.3702324321457L1529.1709847223312 469.3702324321457Q1536.856497297016 469.3702324321457 1541.8587059124359 466.9188189384962Q1546.8609145278558 464.46740544484675 1552.9231938432322 458.2063628732285L1552.9231938432322 458.2063628732285Q1554.5464271025405 456.55000240454643 1556.6665685024536 456.55000240454643L1556.6665685024536 456.55000240454643Q1559.4492540898398 456.55000240454643 1562.36444851472 459.2333063638114Q1565.2796429396005 461.9166103230764 1565.2796429396005 465.1962040510669L1565.2796429396005 465.1962040510669Q1565.2796429396005 468.21078010406825 1562.463830142841 471.92102755391613Q1559.6811445554551 475.6644022131376 1554.9108264056508 478.81148710363357Q1550.1405082558465 481.95857199412944 1544.177610568591 484.0455861846689Q1538.2478400907091 486.1326003752083 1531.9536703097172 486.1326003752083L1531.9536703097172 486.1326003752083Q1525.4276100631096 486.1326003752083 1517.9739879540405 484.17809502216346Q1510.5203658449711 482.19046245974494 1504.2261960639792 477.6520347755561Q1497.965153492361 473.11360709136716 1493.7579979019085 466.1237659135288Q1489.5839695208294 459.13392473569047 1489.5839695208294 448.8644898298616L1489.5839695208294 448.8644898298616Q1489.5839695208294 437.2368393397134 1497.0375916298988 423.72093791526765L1497.0375916298988 423.72093791526765Q1500.284058148516 417.8905490655068 1505.0543762983202 414.18030161565895Q1509.8246944481245 410.43692695643745 1515.1913023666546 408.2174039284034Q1520.5579102851846 406.0310081097431 1526.2557902974506 405.2028278754021Q1531.9536703097172 404.374647641061 1537.3202782282472 404.374647641061L1537.3202782282472 404.374647641061Q1543.150667078008 404.374647641061 1547.7884763903178 405.10344624728117ZM1640.9753163583712 405.10344624728117L1640.9753163583712 405.10344624728117Q1644.685563808219 406.2628985753586 1646.3419242769012 409.0455841627445Q1647.9651575362097 411.8282697501304 1647.9651575362097 414.87597301250537L1647.9651575362097 414.87597301250537Q1647.9651575362097 417.8905490655068 1645.8450161362966 420.3419625591563Q1643.7580019457573 422.79337605280574 1640.9753163583712 422.79337605280574L1640.9753163583712 422.79337605280574Q1638.3913940272273 422.79337605280574 1635.6087084398414 422.56148558719025Q1632.8260228524555 422.32959512157476 1629.7783195900804 422.32959512157476L1629.7783195900804 422.32959512157476Q1623.0203688778577 422.32959512157476 1616.8587079343604 424.18471884649864Q1610.697046990863 426.0398425714226 1606.9536723316417 432.102121886799L1606.9536723316417 432.102121886799Q1603.93909627864 436.7730584084824 1602.7796439505626 441.0795956270558Q1601.6201916224852 445.3861328456292 1601.6201916224852 449.0963802954771L1601.6201916224852 449.0963802954771Q1601.6201916224852 458.438253338844 1607.8812341941032 463.90424288549485Q1614.1754039750954 469.3702324321457 1622.324697481011 469.3702324321457L1622.324697481011 469.3702324321457Q1630.0102100556958 469.3702324321457 1635.0455458804897 466.9188189384962Q1640.0477544959092 464.46740544484675 1646.1100338112858 458.2063628732285L1646.1100338112858 458.2063628732285Q1647.7332670705941 456.55000240454643 1649.8202812611337 456.55000240454643L1649.8202812611337 456.55000240454643Q1652.6029668485196 456.55000240454643 1655.5181612734002 459.2333063638114Q1658.4333556982804 461.9166103230764 1658.4333556982804 465.1962040510669L1658.4333556982804 465.1962040510669Q1658.4333556982804 468.21078010406825 1655.6506701108945 471.92102755391613Q1652.834857314135 475.6644022131376 1648.0645391643309 478.81148710363357Q1643.2942210145263 481.95857199412944 1637.3644505366444 484.0455861846689Q1631.4346800587625 486.1326003752083 1625.1405102777705 486.1326003752083L1625.1405102777705 486.1326003752083Q1618.6144500311632 486.1326003752083 1611.1608279220939 484.17809502216346Q1603.7072058130245 482.19046245974494 1597.4130360320328 477.6520347755561Q1591.1188662510408 473.11360709136716 1586.944837869962 466.1237659135288Q1582.7376822795097 459.13392473569047 1582.7376822795097 448.8644898298616L1582.7376822795097 448.8644898298616Q1582.7376822795097 437.2368393397134 1590.1913043885788 423.72093791526765L1590.1913043885788 423.72093791526765Q1593.4377709071957 417.8905490655068 1598.2412162663738 414.18030161565895Q1603.0115344161782 410.43692695643745 1608.3450151253344 408.2174039284034Q1613.7116230438644 406.0310081097431 1619.4095030561307 405.2028278754021Q1625.1405102777705 404.374647641061 1630.473990986927 404.374647641061L1630.473990986927 404.374647641061Q1636.3043798366878 404.374647641061 1640.9753163583712 405.10344624728117Z " fill="#292826" transform="matrix(0.5276063767894413,0,0,0.5276063767894413,0,75.3410119318504)"/></g></svg>